<svg width="24" height="24" viewBox="0 0 24 24" fill="none" xmlns="http://www.w3.org/2000/svg">
<path d="M2 17.5V16.1875C2 15.5903 2.30556 15.1042 2.91667 14.7292C3.52778 14.3542 4.33333 14.1667 5.33333 14.1667C5.51389 14.1667 5.6875 14.1701 5.85417 14.1771C6.02083 14.184 6.18056 14.2014 6.33333 14.2292C6.13889 14.5208 5.99306 14.8264 5.89583 15.1458C5.79861 15.4653 5.75 15.7986 5.75 16.1458V17.5H2ZM7 17.5V16.1458C7 15.7014 7.12153 15.2951 7.36458 14.9271C7.60764 14.559 7.95139 14.2361 8.39583 13.9583C8.84028 13.6806 9.37153 13.4722 9.98958 13.3333C10.6076 13.1944 11.2778 13.125 12 13.125C12.7361 13.125 13.4132 13.1944 14.0312 13.3333C14.6493 13.4722 15.1806 13.6806 15.625 13.9583C16.0694 14.2361 16.4097 14.559 16.6458 14.9271C16.8819 15.2951 17 15.7014 17 16.1458V17.5H7ZM18.25 17.5V16.1458C18.25 15.7847 18.2049 15.4444 18.1146 15.125C18.0243 14.8056 17.8889 14.5069 17.7083 14.2292C17.8611 14.2014 18.0174 14.184 18.1771 14.1771C18.3368 14.1701 18.5 14.1667 18.6667 14.1667C19.6667 14.1667 20.4722 14.3507 21.0833 14.7188C21.6944 15.0868 22 15.5764 22 16.1875V17.5H18.25ZM8.77083 15.8333H15.25C15.1111 15.5556 14.7257 15.3125 14.0938 15.1042C13.4618 14.8958 12.7639 14.7917 12 14.7917C11.2361 14.7917 10.5382 14.8958 9.90625 15.1042C9.27431 15.3125 8.89583 15.5556 8.77083 15.8333ZM5.33333 13.3333C4.875 13.3333 4.48264 13.1701 4.15625 12.8438C3.82986 12.5174 3.66667 12.125 3.66667 11.6667C3.66667 11.1944 3.82986 10.7986 4.15625 10.4792C4.48264 10.1597 4.875 10 5.33333 10C5.80556 10 6.20139 10.1597 6.52083 10.4792C6.84028 10.7986 7 11.1944 7 11.6667C7 12.125 6.84028 12.5174 6.52083 12.8438C6.20139 13.1701 5.80556 13.3333 5.33333 13.3333ZM18.6667 13.3333C18.2083 13.3333 17.816 13.1701 17.4896 12.8438C17.1632 12.5174 17 12.125 17 11.6667C17 11.1944 17.1632 10.7986 17.4896 10.4792C17.816 10.1597 18.2083 10 18.6667 10C19.1389 10 19.5347 10.1597 19.8542 10.4792C20.1736 10.7986 20.3333 11.1944 20.3333 11.6667C20.3333 12.125 20.1736 12.5174 19.8542 12.8438C19.5347 13.1701 19.1389 13.3333 18.6667 13.3333ZM12 12.5C11.3056 12.5 10.7153 12.2569 10.2292 11.7708C9.74306 11.2847 9.5 10.6944 9.5 10C9.5 9.29167 9.74306 8.69792 10.2292 8.21875C10.7153 7.73958 11.3056 7.5 12 7.5C12.7083 7.5 13.3021 7.73958 13.7812 8.21875C14.2604 8.69792 14.5 9.29167 14.5 10C14.5 10.6944 14.2604 11.2847 13.7812 11.7708C13.3021 12.2569 12.7083 12.5 12 12.5ZM12 10.8333C12.2361 10.8333 12.434 10.7535 12.5938 10.5938C12.7535 10.434 12.8333 10.2361 12.8333 10C12.8333 9.76389 12.7535 9.56597 12.5938 9.40625C12.434 9.24653 12.2361 9.16667 12 9.16667C11.7639 9.16667 11.566 9.24653 11.4062 9.40625C11.2465 9.56597 11.1667 9.76389 11.1667 10C11.1667 10.2361 11.2465 10.434 11.4062 10.5938C11.566 10.7535 11.7639 10.8333 12 10.8333Z" fill="white"/>
</svg>
