<svg width="24" height="24" viewBox="0 0 24 24" fill="none" xmlns="http://www.w3.org/2000/svg">
<path d="M11.955 17.4C12.27 17.4 12.5363 17.2912 12.7537 17.0737C12.9713 16.8562 13.08 16.59 13.08 16.275C13.08 15.96 12.9713 15.6937 12.7537 15.4762C12.5363 15.2587 12.27 15.15 11.955 15.15C11.64 15.15 11.3737 15.2587 11.1562 15.4762C10.9387 15.6937 10.83 15.96 10.83 16.275C10.83 16.59 10.9387 16.8562 11.1562 17.0737C11.3737 17.2912 11.64 17.4 11.955 17.4ZM11.145 13.935H12.81C12.81 13.44 12.8663 13.05 12.9788 12.765C13.0913 12.48 13.41 12.09 13.935 11.595C14.325 11.205 14.6325 10.8337 14.8575 10.4812C15.0825 10.1287 15.195 9.705 15.195 9.21C15.195 8.37 14.8875 7.725 14.2725 7.275C13.6575 6.825 12.93 6.6 12.09 6.6C11.235 6.6 10.5412 6.825 10.0087 7.275C9.47625 7.725 9.105 8.265 8.895 8.895L10.38 9.48C10.455 9.21 10.6237 8.9175 10.8862 8.6025C11.1487 8.2875 11.55 8.13 12.09 8.13C12.57 8.13 12.93 8.26125 13.17 8.52375C13.41 8.78625 13.53 9.075 13.53 9.39C13.53 9.69 13.44 9.97125 13.26 10.2338C13.08 10.4963 12.855 10.74 12.585 10.965C11.925 11.55 11.52 11.9925 11.37 12.2925C11.22 12.5925 11.145 13.14 11.145 13.935ZM12 21C10.755 21 9.585 20.7638 8.49 20.2912C7.395 19.8187 6.4425 19.1775 5.6325 18.3675C4.8225 17.5575 4.18125 16.605 3.70875 15.51C3.23625 14.415 3 13.245 3 12C3 10.755 3.23625 9.585 3.70875 8.49C4.18125 7.395 4.8225 6.4425 5.6325 5.6325C6.4425 4.8225 7.395 4.18125 8.49 3.70875C9.585 3.23625 10.755 3 12 3C13.245 3 14.415 3.23625 15.51 3.70875C16.605 4.18125 17.5575 4.8225 18.3675 5.6325C19.1775 6.4425 19.8187 7.395 20.2912 8.49C20.7638 9.585 21 10.755 21 12C21 13.245 20.7638 14.415 20.2912 15.51C19.8187 16.605 19.1775 17.5575 18.3675 18.3675C17.5575 19.1775 16.605 19.8187 15.51 20.2912C14.415 20.7638 13.245 21 12 21ZM12 19.2C14.01 19.2 15.7125 18.5025 17.1075 17.1075C18.5025 15.7125 19.2 14.01 19.2 12C19.2 9.99 18.5025 8.2875 17.1075 6.8925C15.7125 5.4975 14.01 4.8 12 4.8C9.99 4.8 8.2875 5.4975 6.8925 6.8925C5.4975 8.2875 4.8 9.99 4.8 12C4.8 14.01 5.4975 15.7125 6.8925 17.1075C8.2875 18.5025 9.99 19.2 12 19.2Z" fill="white"/>
</svg>
