<svg width="24" height="24" viewBox="0 0 24 24" fill="none" xmlns="http://www.w3.org/2000/svg">
<path d="M8 6.66667C7.62963 6.66667 7.31481 6.7963 7.05556 7.05556C6.7963 7.31481 6.66667 7.62963 6.66667 8C6.66667 8.37037 6.7963 8.68519 7.05556 8.94444C7.31481 9.2037 7.62963 9.33333 8 9.33333C8.37037 9.33333 8.68519 9.2037 8.94444 8.94444C9.2037 8.68519 9.33333 8.37037 9.33333 8C9.33333 7.62963 9.2037 7.31481 8.94444 7.05556C8.68519 6.7963 8.37037 6.66667 8 6.66667ZM8 15.5556C7.62963 15.5556 7.31481 15.6852 7.05556 15.9444C6.7963 16.2037 6.66667 16.5185 6.66667 16.8889C6.66667 17.2593 6.7963 17.5741 7.05556 17.8333C7.31481 18.0926 7.62963 18.2222 8 18.2222C8.37037 18.2222 8.68519 18.0926 8.94444 17.8333C9.2037 17.5741 9.33333 17.2593 9.33333 16.8889C9.33333 16.5185 9.2037 16.2037 8.94444 15.9444C8.68519 15.6852 8.37037 15.5556 8 15.5556ZM4.88889 4H19.1111C19.363 4 19.5741 4.08519 19.7444 4.25556C19.9148 4.42593 20 4.63704 20 4.88889V11.1111C20 11.363 19.9148 11.5741 19.7444 11.7444C19.5741 11.9148 19.363 12 19.1111 12H4.88889C4.63704 12 4.42593 11.9148 4.25556 11.7444C4.08519 11.5741 4 11.363 4 11.1111V4.88889C4 4.63704 4.08519 4.42593 4.25556 4.25556C4.42593 4.08519 4.63704 4 4.88889 4ZM5.77778 5.77778V10.2222H18.2222V5.77778H5.77778ZM4.88889 12.8889H19.1111C19.363 12.8889 19.5741 12.9741 19.7444 13.1444C19.9148 13.3148 20 13.5259 20 13.7778V20C20 20.2519 19.9148 20.463 19.7444 20.6333C19.5741 20.8037 19.363 20.8889 19.1111 20.8889H4.88889C4.63704 20.8889 4.42593 20.8037 4.25556 20.6333C4.08519 20.463 4 20.2519 4 20V13.7778C4 13.5259 4.08519 13.3148 4.25556 13.1444C4.42593 12.9741 4.63704 12.8889 4.88889 12.8889ZM5.77778 14.6667V19.1111H18.2222V14.6667H5.77778Z" fill="white"/>
</svg>
