<svg xmlns="http://www.w3.org/2000/svg" width="12" height="15" viewBox="0 0 12 15" fill="none">
  <path d="M1.95937 0C0.878865 0 0 0.878865 0 1.95937V11.4V11.9343V12.2906C0 13.3664 0.883577 14.2499 1.95937 14.2499H11.2218C11.2926 14.2509 11.3629 14.2379 11.4287 14.2115C11.4944 14.1851 11.5542 14.1459 11.6046 14.0961C11.655 14.0464 11.6951 13.9872 11.7224 13.9218C11.7497 13.8565 11.7638 13.7864 11.7638 13.7156C11.7638 13.6448 11.7497 13.5746 11.7224 13.5093C11.6951 13.444 11.655 13.3847 11.6046 13.335C11.5542 13.2853 11.4944 13.2461 11.4287 13.2197C11.3629 13.1933 11.2926 13.1802 11.2218 13.1812H1.95937C1.52233 13.1812 1.16751 12.8792 1.08684 12.4687H11.2218C11.5172 12.4687 11.7562 12.2297 11.7562 11.9343V1.95937C11.7562 1.06447 11.1524 0.309185 10.3312 0.075842V1.25174C10.546 1.41455 10.6875 1.66974 10.6875 1.95937V11.4H1.06875V1.95937C1.06875 1.46846 1.46846 1.06875 1.95937 1.06875H3.91874V0H1.95937ZM4.63123 0V0.534373V1.06875V5.8781C4.63126 5.97081 4.6554 6.06192 4.70129 6.14247C4.74718 6.22303 4.81323 6.29026 4.89296 6.33757C4.97269 6.38487 5.06336 6.41062 5.15605 6.41229C5.24875 6.41396 5.34028 6.39148 5.42166 6.34707L7.12497 5.41818L8.82829 6.34707C8.90967 6.39148 9.0012 6.41396 9.09389 6.41229C9.18659 6.41062 9.27725 6.38487 9.35698 6.33757C9.43671 6.29026 9.50277 6.22303 9.54866 6.14247C9.59454 6.06192 9.61869 5.97081 9.61871 5.8781V0.534373V0H9.08434H5.69998H4.63123ZM5.69998 1.06875H8.54997V4.97774L7.38103 4.34039C7.30249 4.29752 7.21445 4.27506 7.12497 4.27506C7.0355 4.27506 6.94746 4.29752 6.86892 4.34039L5.69998 4.97774V1.06875Z" fill="#576A85"/>
</svg>
