<svg xmlns="http://www.w3.org/2000/svg" width="17" height="16" viewBox="0 0 17 16" fill="none">
  <path d="M15 3.1665C15 2.68027 14.8067 2.21393 14.4629 1.87012C14.1191 1.5263 13.6527 1.33301 13.1665 1.33301H3.1665C2.68027 1.33301 2.21393 1.5263 1.87012 1.87012C1.5263 2.21393 1.33301 2.68027 1.33301 3.1665V9.83317L1.34196 10.0146C1.38368 10.4342 1.56934 10.8288 1.87012 11.1296C2.21393 11.4734 2.68027 11.6667 3.1665 11.6667H4.83317C5.20136 11.6667 5.49967 11.965 5.49967 12.3332V13.6564L8.65723 11.7619L8.73698 11.7204C8.81973 11.6849 8.90917 11.6667 8.99984 11.6667H13.1665L13.348 11.6577C13.7676 11.616 14.1621 11.4303 14.4629 11.1296C14.7637 10.8288 14.9493 10.4342 14.991 10.0146L15 9.83317V3.1665ZM9.83317 7.5L9.90153 7.50326C10.2376 7.53748 10.4997 7.82139 10.4997 8.1665C10.4997 8.53469 10.2014 8.83301 9.83317 8.83301H4.83317C4.46498 8.83301 4.16667 8.53469 4.16667 8.1665C4.16667 7.79831 4.46498 7.5 4.83317 7.5H9.83317ZM11.4998 4.16667C11.868 4.16667 12.1663 4.46498 12.1663 4.83317C12.1663 5.20136 11.868 5.49967 11.4998 5.49967H4.83317C4.46498 5.49967 4.16667 5.20136 4.16667 4.83317C4.16667 4.46498 4.46498 4.16667 4.83317 4.16667H11.4998ZM16.333 9.83317C16.333 10.673 15.9991 11.4781 15.4053 12.0719C14.8114 12.6658 14.0064 12.9997 13.1665 12.9997H9.18376L5.17578 15.4045C4.96985 15.528 4.71336 15.5317 4.50439 15.4134C4.2955 15.295 4.16667 15.0733 4.16667 14.8332V12.9997H3.1665C2.32665 12.9997 1.5216 12.6658 0.927734 12.0719C0.333869 11.4781 0 10.673 0 9.83317V3.1665C0 2.32665 0.333869 1.5216 0.927734 0.927734C1.5216 0.333869 2.32665 0 3.1665 0H13.1665C14.0064 0 14.8114 0.333869 15.4053 0.927734C15.9991 1.5216 16.333 2.32665 16.333 3.1665V9.83317Z" fill="#576A85"/>
</svg>
