<svg xmlns="http://www.w3.org/2000/svg" width="13" height="13" viewBox="0 0 13 13" fill="none">
  <path d="M12.1905 0.000157001C12.042 0.00366516 11.9008 0.0658048 11.7979 0.173009L6.38314 5.5878L0.968349 0.173009C0.915918 0.119014 0.853185 0.0760889 0.783865 0.0467758C0.714545 0.0174626 0.640048 0.00235727 0.564785 0.00235427C0.452839 0.00238158 0.343447 0.0358073 0.250605 0.0983546C0.157763 0.160902 0.085693 0.249726 0.0436162 0.353463C0.00153943 0.4572 -0.00863051 0.571132 0.0144073 0.680682C0.0374452 0.790231 0.0926432 0.890416 0.172939 0.968419L5.58773 6.38321L0.172939 11.798C0.118955 11.8498 0.0758559 11.9119 0.0461654 11.9806C0.0164749 12.0493 0.000789946 12.1232 2.90772e-05 12.1981C-0.000731792 12.2729 0.0134468 12.3472 0.0417344 12.4164C0.070022 12.4857 0.11185 12.5487 0.164769 12.6016C0.217688 12.6545 0.280634 12.6963 0.34992 12.7246C0.419207 12.7529 0.493441 12.7671 0.568276 12.7663C0.64311 12.7656 0.717041 12.7499 0.785738 12.7202C0.854435 12.6905 0.916517 12.6474 0.968349 12.5934L6.38314 7.17862L11.7979 12.5934C11.8498 12.6474 11.9119 12.6905 11.9806 12.7202C12.0492 12.7499 12.1232 12.7656 12.198 12.7663C12.2728 12.7671 12.3471 12.7529 12.4164 12.7246C12.4857 12.6963 12.5486 12.6545 12.6015 12.6016C12.6544 12.5487 12.6963 12.4857 12.7246 12.4164C12.7528 12.3472 12.767 12.2729 12.7663 12.1981C12.7655 12.1232 12.7498 12.0493 12.7201 11.9806C12.6904 11.9119 12.6473 11.8498 12.5933 11.798L7.17855 6.38321L12.5933 0.968419C12.6751 0.889909 12.7313 0.788516 12.7545 0.67753C12.7777 0.566545 12.7668 0.451148 12.7232 0.346468C12.6797 0.241787 12.6055 0.152709 12.5104 0.0909108C12.4154 0.0291128 12.3039 -0.00252093 12.1905 0.000157001Z" fill="#576A85"/>
</svg>
