<svg xmlns="http://www.w3.org/2000/svg" width="17" height="12" viewBox="0 0 17 12" fill="none">
  <path d="M8.16622 0C11.4699 0 14.1577 1.85758 16.2375 5.32389C16.3641 5.53496 16.3641 5.79805 16.2375 6.00912C14.1577 9.47543 11.4699 11.333 8.16622 11.333C4.86252 11.333 2.17472 9.47543 0.0949329 6.00912C-0.0316443 5.79805 -0.0316443 5.53496 0.0949329 5.32389C2.17472 1.85758 4.86252 0 8.16622 0ZM8.16622 1.33301C5.56825 1.33301 3.32761 2.70372 1.44991 5.6665C3.32761 8.62929 5.56825 10 8.16622 10C10.7641 10 13.0041 8.62904 14.8817 5.6665C13.0041 2.70397 10.7641 1.33301 8.16622 1.33301ZM9.16639 5.6665C9.16639 5.40129 9.06095 5.14685 8.87342 4.95931C8.68588 4.77177 8.43144 4.66634 8.16622 4.66634C7.90101 4.66634 7.64657 4.77177 7.45903 4.95931C7.27149 5.14685 7.16606 5.40129 7.16606 5.6665C7.16606 5.93172 7.27149 6.18616 7.45903 6.3737C7.64657 6.56124 7.90101 6.66667 8.16622 6.66667C8.43144 6.66667 8.68588 6.56124 8.87342 6.3737C9.06095 6.18616 9.16639 5.93172 9.16639 5.6665ZM10.4994 5.6665C10.4994 6.28534 10.2534 6.8785 9.8158 7.31608C9.37822 7.75367 8.78506 7.99968 8.16622 7.99968C7.54738 7.99968 6.95423 7.75367 6.51665 7.31608C6.07906 6.8785 5.83305 6.28534 5.83305 5.6665C5.83305 5.04767 6.07906 4.45451 6.51665 4.01693C6.95423 3.57934 7.54738 3.33333 8.16622 3.33333C8.78506 3.33333 9.37822 3.57934 9.8158 4.01693C10.2534 4.45451 10.4994 5.04767 10.4994 5.6665Z" fill="#576A85"/>
</svg>
