<svg xmlns="http://www.w3.org/2000/svg" width="15" height="17" viewBox="0 0 15 17" fill="none">
  <path d="M3.32845 3.06798C3.3058 2.83892 3.20455 2.62345 3.04036 2.45926C2.87618 2.29507 2.66071 2.19383 2.43164 2.17117L2.33317 2.16629C2.06795 2.16629 1.81351 2.27172 1.62598 2.45926C1.43844 2.6468 1.33301 2.90124 1.33301 3.16645L1.33789 3.26492C1.36055 3.49399 1.46179 3.70946 1.62598 3.87365C1.81351 4.06118 2.06795 4.16662 2.33317 4.16662L2.43164 4.16173C2.66071 4.13908 2.87618 4.03783 3.04036 3.87365C3.2279 3.68611 3.33333 3.43167 3.33333 3.16645L3.32845 3.06798ZM13.3333 13.1665C13.3333 12.9012 13.2279 12.6468 13.0404 12.4593C12.8762 12.2951 12.6607 12.1938 12.4316 12.1712L12.3332 12.1663C12.068 12.1663 11.8135 12.2717 11.626 12.4593C11.4384 12.6468 11.333 12.9012 11.333 13.1665L11.3379 13.2649C11.3605 13.494 11.4618 13.7095 11.626 13.8736C11.8135 14.0612 12.068 14.1666 12.3332 14.1666C12.5984 14.1666 12.8528 14.0612 13.0404 13.8736C13.2279 13.6861 13.3333 13.4317 13.3333 13.1665ZM14.6663 13.1665C14.6663 13.7853 14.4203 14.3784 13.9827 14.816C13.5452 15.2536 12.952 15.4996 12.3332 15.4996C11.7143 15.4996 11.1212 15.2536 10.6836 14.816C10.3006 14.4331 10.0644 13.931 10.0114 13.3968L10 13.1665C10 12.5476 10.246 11.9545 10.6836 11.5169C10.9601 11.2404 11.2986 11.0407 11.6667 10.9309V4.83312C11.6667 4.5679 11.5612 4.31346 11.3737 4.12593C11.2095 3.96174 10.994 3.8605 10.765 3.83784L10.6665 3.83296H8.10872L9.47103 5.19526L9.5166 5.24572C9.73032 5.50757 9.71516 5.89351 9.47103 6.13765C9.2269 6.38178 8.84095 6.39694 8.5791 6.18322L8.52865 6.13765L6.02865 3.63765C5.7683 3.3773 5.7683 2.95561 6.02865 2.69526L8.52865 0.195262C8.789 -0.0650874 9.21068 -0.0650874 9.47103 0.195262C9.73138 0.455612 9.73138 0.877295 9.47103 1.13765L8.10872 2.49995H10.6665C11.2853 2.49995 11.8785 2.74596 12.3161 3.18354C12.7537 3.62113 12.9997 4.21428 12.9997 4.83312V10.9309C13.3677 11.0407 13.7063 11.2404 13.9827 11.5169C14.4203 11.9545 14.6663 12.5476 14.6663 13.1665ZM4.65495 3.39676C4.60197 3.93103 4.36571 4.43307 3.98275 4.81603C3.70632 5.09246 3.36762 5.2914 2.99967 5.40115V11.4998L3.00456 11.5983C3.02721 11.8273 3.12846 12.0428 3.29264 12.207C3.48018 12.3945 3.73462 12.5 3.99984 12.5H6.55762L5.19531 11.1376L5.14974 11.0872C4.93602 10.8253 4.95118 10.4394 5.19531 10.1953C5.43945 9.95113 5.82539 9.93597 6.08724 10.1497L6.1377 10.1953L8.6377 12.6953C8.89805 12.9556 8.89805 13.3773 8.6377 13.6376L6.1377 16.1376C5.87735 16.398 5.45566 16.398 5.19531 16.1376C4.93496 15.8773 4.93496 15.4556 5.19531 15.1953L6.55762 13.833H3.99984C3.381 13.833 2.78785 13.5869 2.35026 13.1494C1.91268 12.7118 1.66667 12.1186 1.66667 11.4998V5.40115C1.29872 5.2914 0.960022 5.09246 0.683594 4.81603C0.300636 4.43307 0.0643714 3.93103 0.0113932 3.39676L0 3.16645C0 2.54762 0.246009 1.95446 0.683594 1.51688C1.12118 1.07929 1.71433 0.833283 2.33317 0.833283L2.56348 0.844676C3.09774 0.897654 3.59979 1.13392 3.98275 1.51688C4.42033 1.95446 4.66634 2.54762 4.66634 3.16645L4.65495 3.39676Z" fill="#576A85"/>
</svg>
