<svg xmlns="http://www.w3.org/2000/svg" width="24" height="24" viewBox="0 0 24 24" fill="none">
  <path d="M9.13951 18.6744V16.7674H20.5814V18.6744H9.13951ZM9.13951 12.9535V11.0465H20.5814V12.9535H9.13951ZM9.13951 7.23254V5.32556H20.5814V7.23254H9.13951ZM5.32556 19.6279C4.80114 19.6279 4.3522 19.4412 3.97875 19.0677C3.6053 18.6943 3.41858 18.2453 3.41858 17.7209C3.41858 17.1965 3.6053 16.7476 3.97875 16.3741C4.3522 16.0007 4.80114 15.8139 5.32556 15.8139C5.84997 15.8139 6.29891 16.0007 6.67236 16.3741C7.04581 16.7476 7.23253 17.1965 7.23253 17.7209C7.23253 18.2453 7.04581 18.6943 6.67236 19.0677C6.29891 19.4412 5.84997 19.6279 5.32556 19.6279ZM5.32556 13.907C4.80114 13.907 4.3522 13.7202 3.97875 13.3468C3.6053 12.9733 3.41858 12.5244 3.41858 12C3.41858 11.4756 3.6053 11.0266 3.97875 10.6532C4.3522 10.2797 4.80114 10.093 5.32556 10.093C5.84997 10.093 6.29891 10.2797 6.67236 10.6532C7.04581 11.0266 7.23253 11.4756 7.23253 12C7.23253 12.5244 7.04581 12.9733 6.67236 13.3468C6.29891 13.7202 5.84997 13.907 5.32556 13.907ZM5.32556 8.18602C4.80114 8.18602 4.3522 7.9993 3.97875 7.62585C3.6053 7.2524 3.41858 6.80347 3.41858 6.27905C3.41858 5.75463 3.6053 5.30569 3.97875 4.93224C4.3522 4.5588 4.80114 4.37207 5.32556 4.37207C5.84997 4.37207 6.29891 4.5588 6.67236 4.93224C7.04581 5.30569 7.23253 5.75463 7.23253 6.27905C7.23253 6.80347 7.04581 7.2524 6.67236 7.62585C6.29891 7.9993 5.84997 8.18602 5.32556 8.18602Z" fill="currentColor"/>
</svg>
