<svg width="24" height="24" viewBox="0 0 24 24" fill="none" xmlns="http://www.w3.org/2000/svg">
<path d="M16.2857 14.5714H15.3714L15.0286 14.2286C16.1714 12.9714 16.8571 11.2571 16.8571 9.42857C16.8571 5.31429 13.5429 2 9.42857 2C5.31429 2 2 5.31429 2 9.42857C2 13.5429 5.31429 16.8571 9.42857 16.8571C11.2571 16.8571 12.9714 16.1714 14.2286 15.0286L14.5714 15.3714V16.2857L20.2857 22L22 20.2857L16.2857 14.5714ZM9.42857 14.5714C6.57143 14.5714 4.28571 12.2857 4.28571 9.42857C4.28571 6.57143 6.57143 4.28571 9.42857 4.28571C12.2857 4.28571 14.5714 6.57143 14.5714 9.42857C14.5714 12.2857 12.2857 14.5714 9.42857 14.5714Z" fill="#C4C2C8"/>
</svg>
