<svg xmlns="http://www.w3.org/2000/svg" width="21" height="24" viewBox="0 0 21 24" fill="none">
  <path d="M9.33333 23.3333C6.63056 22.6528 4.39931 21.1021 2.63958 18.6813C0.879861 16.2604 0 13.5722 0 10.6167V3.5L9.33333 0L18.6667 3.5V10.1208C18.2972 9.96528 17.9181 9.82431 17.5292 9.69792C17.1403 9.57153 16.7417 9.47917 16.3333 9.42083V5.13333L9.33333 2.50833L2.33333 5.13333V10.6167C2.33333 11.5306 2.45486 12.4444 2.69792 13.3583C2.94097 14.2722 3.28125 15.1424 3.71875 15.9688C4.15625 16.7951 4.68611 17.5583 5.30833 18.2583C5.93056 18.9583 6.62083 19.5417 7.37917 20.0083C7.59306 20.6306 7.875 21.2236 8.225 21.7875C8.575 22.3514 8.97361 22.8569 9.42083 23.3042C9.40139 23.3042 9.38681 23.309 9.37708 23.3188C9.36736 23.3285 9.35278 23.3333 9.33333 23.3333ZM15.1667 23.3333C13.5528 23.3333 12.1771 22.7646 11.0396 21.6271C9.90208 20.4896 9.33333 19.1139 9.33333 17.5C9.33333 15.8861 9.90208 14.5104 11.0396 13.3729C12.1771 12.2354 13.5528 11.6667 15.1667 11.6667C16.7806 11.6667 18.1563 12.2354 19.2938 13.3729C20.4313 14.5104 21 15.8861 21 17.5C21 19.1139 20.4313 20.4896 19.2938 21.6271C18.1563 22.7646 16.7806 23.3333 15.1667 23.3333ZM14.5833 21H15.75V18.0833H18.6667V16.9167H15.75V14H14.5833V16.9167H11.6667V18.0833H14.5833V21Z" fill="#0054C7"/>
</svg>
